<?xml version="1.0"?>
<svg xmlns="http://www.w3.org/2000/svg" version="1.1" width="32mm" height="24mm" viewBox="0,0,80,60">
  <style>
    .letter {
      font: bold 12pt sans-serif;
      dominant-baseline: middle;
      text-anchor: middle;
      fill: black;
    }
    .box {
      stroke: black;
      stroke-width: 1px;
    }
  </style>
<rect class="box" x="0" y="0" width="20" height="20" fill="lightgreen"/>
<text class="letter" x="10" y="10">U</text>
<rect class="box" x="20" y="0" width="20" height="20" fill="grey"/>
<text class="letter" x="30" y="10">-</text>
<rect class="box" x="40" y="0" width="20" height="20" fill="grey"/>
<text class="letter" x="50" y="10">-</text>
<rect class="box" x="60" y="0" width="20" height="20" fill="grey"/>
<text class="letter" x="70" y="10">-</text>
<rect class="box" x="0" y="20" width="20" height="20" fill="pink"/>
<text class="letter" x="10" y="30">-</text>
<rect class="box" x="20" y="20" width="20" height="20" fill="pink"/>
<text class="letter" x="30" y="30">-</text>
<rect class="box" x="40" y="20" width="20" height="20" fill="lightgreen"/>
<text class="letter" x="50" y="30">D</text>
<rect class="box" x="60" y="20" width="20" height="20" fill="white"/>
<text class="letter" x="70" y="30">D</text>
<rect class="box" x="0" y="40" width="20" height="20" fill="grey"/>
<text class="letter" x="10" y="50">-</text>
<rect class="box" x="20" y="40" width="20" height="20" fill="grey"/>
<text class="letter" x="30" y="50">-</text>
<rect class="box" x="40" y="40" width="20" height="20" fill="grey"/>
<text class="letter" x="50" y="50">-</text>
<rect class="box" x="60" y="40" width="20" height="20" fill="grey"/>
<text class="letter" x="70" y="50">-</text>

</svg>
